<svg xmlns="http://www.w3.org/2000/svg" width="22" height="22" fill="none"><path fill="#DE1251" fill-rule="evenodd" d="M10.484 3.78c-.091.713.02 1.293.379 1.348.162.024.235-.03.368-.127.127-.094.31-.228.678-.373a27.55 27.55 0 0 1 3.106-.846c2.733-.618 2.383-3.054 2.147-3.608a.266.266 0 0 0-.078-.107.304.304 0 0 0-.384.005 5.19 5.19 0 0 1-.953.595c-.588.288-1.082.417-2.768.855l-.356.092c-1.478.387-2.027 1.318-2.139 2.166Zm2.45 2.06c2.107-.428 4.92-1 7.312 1.535 2.633 2.787 2.257 7.625-.83 11.008-3.088 3.383-9.28 4.992-14 2.162C.252 17.448-1.026 11.901.764 7.985c.835-1.829 2.873-3.292 5.582-3.292 1.423.003 2.31.456 3.074.847.565.289 1.064.544 1.663.559.507.014 1.139-.115 1.852-.26ZM11.19 18.63c.527.349 2.329.91 4.09-.132 1.8-1.064 2.034-2.784 1.86-3.4-.035-.127-.079-.21-.176-.213-.094-.002-.128.04-.263.212l-.01.014a8.982 8.982 0 0 1-2.372 2.003c-.946.549-1.983.945-3.068 1.173-.214.04-.21.245-.061.343Z" clip-rule="evenodd"/></svg>