<svg width="20" height="20" fill="none" xmlns="http://www.w3.org/2000/svg"><path fill-rule="evenodd" clip-rule="evenodd" d="M9.531 3.436c-.083.648.019 1.176.344 1.225.148.022.214-.026.335-.115.116-.085.282-.207.616-.339.924-.31 1.867-.567 2.824-.769 2.485-.562 2.166-2.776 1.952-3.28a.241.241 0 0 0-.072-.097.277.277 0 0 0-.35.005 4.72 4.72 0 0 1-.864.54c-.535.263-.984.38-2.517.778l-.324.084c-1.343.35-1.842 1.197-1.944 1.968Zm2.228 1.873c1.915-.39 4.471-.91 6.647 1.395 2.393 2.534 2.052 6.933-.755 10.008-2.807 3.075-8.436 4.538-12.728 1.965C.23 15.862-.932 10.82.694 7.26c.76-1.662 2.612-2.992 5.075-2.992 1.293.002 2.1.414 2.795.77.513.262.967.493 1.511.507.461.013 1.036-.104 1.684-.235Zm-1.586 11.628c.478.316 2.117.827 3.718-.12 1.636-.968 1.85-2.532 1.691-3.091-.032-.116-.072-.192-.16-.194-.086-.002-.117.037-.24.193l-.009.012a8.168 8.168 0 0 1-2.156 1.822 9.415 9.415 0 0 1-2.788 1.065c-.196.038-.191.223-.056.313Z" fill="#DE1251"/></svg>