<svg xmlns="http://www.w3.org/2000/svg" width="24" height="24" fill="none"><path fill="#fff" fill-rule="evenodd" d="M11.437 4.123c-.1.778.023 1.411.413 1.47.178.027.257-.031.402-.138.14-.102.338-.248.74-.407 1.108-.372 2.24-.68 3.389-.922C19.362 3.45 18.98.795 18.722.19a.29.29 0 0 0-.085-.117.32.32 0 0 0-.287-.063.318.318 0 0 0-.132.069c-.32.251-.668.469-1.04.648-.64.315-1.18.455-3.02.933l-.387.101c-1.613.421-2.212 1.437-2.334 2.362Zm2.674 2.247c2.297-.467 5.365-1.09 7.976 1.675 2.872 3.04 2.462 8.319-.906 12.009-3.369 3.69-10.123 5.446-15.273 2.359C.275 19.035-1.119 12.983.833 8.71c.912-1.995 3.134-3.591 6.09-3.591 1.552.003 2.519.497 3.354.924.616.315 1.16.593 1.813.61.554.015 1.243-.126 2.02-.284Zm-1.904 13.954c.575.38 2.54.993 4.462-.144 1.963-1.161 2.22-3.038 2.03-3.709-.04-.139-.087-.23-.193-.233-.103-.003-.14.045-.287.232l-.01.014a9.8 9.8 0 0 1-2.589 2.186 11.298 11.298 0 0 1-3.346 1.28c-.234.044-.228.267-.067.374Z" clip-rule="evenodd"/></svg>