<?xml version="1.0" standalone="no"?>
<!DOCTYPE svg PUBLIC "-//W3C//DTD SVG 20010904//EN"
 "http://www.w3.org/TR/2001/REC-SVG-20010904/DTD/svg10.dtd">
<svg version="1.0" xmlns="http://www.w3.org/2000/svg"
 width="96.000000pt" height="96.000000pt" viewBox="0 0 96.000000 96.000000"
 preserveAspectRatio="xMidYMid meet">

<g transform="translate(0.000000,96.000000) scale(0.100000,-0.100000)"
fill="#000000" stroke="none">
<path d="M366 944 c-237 -57 -398 -298 -358 -537 35 -208 191 -363 400 -399
311 -53 597 233 544 545 -48 280 -313 457 -586 391z m206 -35 c176 -38 309
-180 341 -364 30 -178 -68 -372 -231 -454 -127 -64 -264 -65 -397 -2 -166 77
-269 275 -238 456 44 254 277 416 525 364z"/>
<path d="M625 750 c-29 -7 -29 -8 10 -10 l40 -2 -40 -19 c-48 -22 -37 -24 28
-4 44 13 51 13 75 -2 l27 -17 -29 32 c-31 33 -51 37 -111 22z"/>
<path d="M360 697 c-25 -23 -67 -61 -95 -84 -54 -46 -56 -63 -4 -39 25 12 27
14 9 10 -22 -4 -21 -1 15 32 105 95 118 103 191 113 l69 8 -70 2 c-69 1 -71 0
-115 -42z"/>
<path d="M716 691 c-3 -4 -23 -13 -45 -21 -32 -10 -39 -16 -30 -27 6 -7 9 -13
6 -13 -3 0 -1 -13 4 -30 6 -16 15 -28 19 -25 27 16 21 -83 -6 -106 -12 -10
-14 -5 -14 30 0 28 -5 44 -15 47 -11 4 -15 21 -15 55 0 49 0 49 -27 43 -34 -8
-40 -13 -28 -22 6 -4 12 -20 14 -37 1 -16 8 -33 14 -37 8 -5 7 -17 -1 -45 -18
-60 -28 -150 -20 -182 3 -15 -61 -24 -96 -14 -18 5 -18 7 -4 17 17 13 25 61
14 86 -3 8 -7 30 -9 48 -4 33 -17 57 -17 30 0 -9 -7 -28 -15 -44 -12 -23 -15
-25 -21 -11 -3 9 -11 14 -18 10 -6 -4 -6 0 2 9 9 12 10 18 2 23 -18 11 -32
-10 -36 -52 -5 -53 -9 -71 -17 -80 -4 -4 4 -16 19 -28 25 -20 25 -21 8 -35
-18 -14 -18 -14 -5 3 14 18 13 18 -17 14 -27 -4 -32 -2 -32 14 0 14 -7 19 -25
19 -26 0 -35 -24 -12 -33 7 -3 4 -6 -7 -6 -15 -1 -18 5 -14 34 2 19 0 35 -5
35 -5 0 -7 6 -4 14 3 8 2 16 -3 18 -5 2 -11 14 -13 28 -6 39 -41 38 -57 -1
l-14 -32 -23 48 c-32 67 -37 68 -29 5 14 -113 87 -220 187 -274 45 -25 58 -28
115 -23 35 3 72 10 81 16 16 8 14 10 -10 16 -22 6 -25 10 -16 21 14 17 -7 48
-25 37 -6 -4 -4 2 4 12 14 17 13 18 -11 12 -31 -8 -43 1 -28 19 9 11 16 11 38
0 43 -22 84 -29 79 -14 -3 7 -16 12 -30 10 -15 -2 -28 1 -31 5 -3 5 20 9 51
11 37 2 52 -1 43 -6 -16 -11 59 -30 132 -34 42 -2 52 2 67 22 18 23 18 25 2
32 -14 5 -13 7 4 7 23 1 43 36 48 82 1 14 5 30 9 36 4 6 1 13 -5 16 -10 4 -11
7 0 18 13 14 16 51 6 62 -4 4 -8 22 -10 41 -4 46 -31 97 -55 103 -10 3 -19 9
-19 13 0 11 -28 21 -34 11z m12 -33 c0 -7 5 -51 10 -98 l9 -85 2 73 c1 68 11
91 25 56 4 -9 9 -62 13 -118 5 -87 3 -103 -11 -115 -14 -12 -16 -9 -17 35 -1
31 -3 38 -6 19 -7 -56 -13 -75 -26 -75 -13 0 -14 9 -25 193 -6 112 -5 127 9
127 9 0 16 -6 17 -12z m-394 -387 c4 -5 -1 -8 -9 -7 -21 3 -31 16 -12 16 9 0
18 -4 21 -9z"/>
<path d="M522 622 c-18 -3 -22 -8 -17 -20 4 -9 10 -30 14 -46 6 -25 8 -27 19
-13 7 9 12 31 10 49 -3 28 -6 33 -26 30z"/>
<path d="M463 601 c-17 -5 -20 -10 -13 -21 5 -8 10 -25 10 -37 0 -30 18 -29
26 1 10 42 2 63 -23 57z"/>
<path d="M403 583 c-10 -3 -10 -10 -2 -24 5 -11 9 -28 7 -38 -2 -10 2 -20 7
-22 6 -2 11 17 13 44 3 46 0 51 -25 40z"/>
<path d="M288 549 c-44 -16 -55 -24 -51 -36 6 -14 7 -14 18 1 13 17 26 22 24
9 -1 -5 -1 -14 0 -21 2 -21 21 -3 21 19 0 40 20 7 21 -34 1 -41 1 -40 14 18
12 58 12 59 20 27 11 -48 25 -49 25 -3 0 48 -6 49 -92 20z"/>
<path d="M190 490 c0 -5 5 -10 11 -10 5 0 7 5 4 10 -3 6 -8 10 -11 10 -2 0 -4
-4 -4 -10z"/>
<path d="M531 445 c0 -22 -5 -55 -10 -73 -8 -27 -7 -32 7 -32 14 0 17 9 14 52
-4 75 -9 100 -11 53z"/>
<path d="M170 453 c0 -13 5 -23 10 -23 13 0 13 11 0 30 -8 12 -10 11 -10 -7z"/>
</g>
</svg>
