<svg width="194" height="50" viewBox="0 0 194 50" fill="none" xmlns="http://www.w3.org/2000/svg">
<g clip-path="url(#clip0_534_1661)">
<path d="M19.1245 14.7362C19.1245 13.1381 18.4094 11.796 17.6513 11.1559C17.28 10.8262 16.8502 10.5586 16.3578 10.3142C15.8654 10.0853 15.5255 9.95733 15.3301 9.91466C15.1386 9.87199 14.9745 9.84484 14.8533 9.82933V9.61598L15.1972 9.53065C15.6271 9.37549 16.2992 8.94492 16.9205 8.35919C17.5458 7.77347 18.0499 6.6602 18.0499 5.40729C18.0538 1.79597 15.7052 0 10.9886 0H0.609604V20.4577H10.4688C13.5481 20.4577 15.7482 20.031 17.1003 19.1583C18.4524 18.2894 19.1245 16.8192 19.1245 14.7362ZM14.0991 14.2669C14.0991 15.9659 12.9698 16.8076 10.6955 16.8076H5.41222V11.699H10.6916C12.9659 11.699 14.0952 12.5562 14.0952 14.2669H14.0991ZM13.0284 6.02017C13.0284 7.61831 12.0476 8.41738 10.0859 8.41738H5.41222V3.65012H10.082C12.0437 3.65012 13.0245 4.43367 13.0245 6.01629L13.0284 6.02017Z" fill="#DE1251"/>
<path d="M28.0459 16.4197V0H23.2433V20.4577H38.3623V16.4197H28.0459Z" fill="#DE1251"/>
<path d="M42.6804 0V3.89449H47.9168V16.5749H42.6804V20.4538H57.9675V16.5749H52.7311V3.89449H57.9675V0H42.6804Z" fill="#DE1251"/>
<path d="M82.727 20.4577V0H77.9243V13.5958L78.5926 16.1908H78.1314L77.1506 13.5958L69.4758 0H62.2347V20.4577H67.0374V6.87743L66.3691 4.26687H66.8303L67.8111 6.87743L75.4859 20.4577H82.727Z" fill="#DE1251"/>
<path d="M106.115 14.7362C106.115 13.1381 105.4 11.796 104.642 11.1559C104.27 10.8262 103.841 10.5586 103.348 10.3142C102.856 10.0853 102.516 9.95733 102.32 9.91466C102.129 9.87199 101.965 9.84484 101.844 9.82933V9.61598L102.188 9.53065C102.617 9.37549 103.29 8.94492 103.911 8.35919C104.536 7.77347 105.04 6.6602 105.04 5.40729C105.04 1.79984 102.692 0 97.975 0H87.596V20.4577H97.4552C100.535 20.4577 102.735 20.031 104.087 19.1583C105.439 18.2894 106.111 16.8192 106.111 14.7362H106.115ZM101.089 14.2669C101.089 15.9659 99.9601 16.8076 97.6858 16.8076H92.4064V11.699H97.6858C99.9601 11.699 101.089 12.5562 101.089 14.2669ZM100.019 6.02017C100.019 7.61831 99.0379 8.41738 97.0762 8.41738H92.4064V3.65012H97.0762C99.0379 3.65012 100.019 4.43367 100.019 6.01629V6.02017Z" fill="#DE1251"/>
<path d="M127.709 20.4577V16.5787H115.04V11.8425H125.732V8.10318H115.04V3.89449H127.709V0H110.237V20.4577H127.709Z" fill="#DE1251"/>
<path d="M141.077 13.4096L145.778 20.4577H151.191L145.896 12.5136L146.298 12.4011C146.818 12.2149 147.592 11.6292 148.35 10.8185C149.108 10.0039 149.702 8.42128 149.702 6.63696C149.702 2.12959 147.041 0.00390625 140.956 0.00390625H131.824V20.4577H136.626V13.4096H141.074H141.077ZM144.676 6.71841C144.676 8.6579 143.473 9.52679 140.96 9.52679H136.634V3.89452H140.96C143.446 3.879 144.676 4.82159 144.676 6.71841Z" fill="#DE1251"/>
<path d="M163.652 13.4096L168.35 20.4577H173.762L168.467 12.5136L168.869 12.4011C169.389 12.2149 170.163 11.6292 170.921 10.8185C171.679 10.0039 172.273 8.42128 172.273 6.63696C172.273 2.12959 169.612 0.00390625 163.531 0.00390625H154.399V20.4577H159.202V13.4096H163.649H163.652ZM167.251 6.71841C167.251 8.6579 166.048 9.52679 163.535 9.52679H159.209V3.89452H163.535C166.021 3.879 167.251 4.82159 167.251 6.71841Z" fill="#DE1251"/>
<path d="M183.43 9.14275L178.447 0H173.168L180.901 13.3514V20.4538H186.27V13.3514L194 0H188.736L183.742 9.14275H183.43Z" fill="#DE1251"/>
<path d="M16.5376 42.7658L16.3891 43.08C16.225 43.5222 15.6622 44.1777 14.8885 44.8061C14.1148 45.4345 12.6416 45.9194 10.9026 45.9194C8.92529 45.9194 7.45207 45.322 6.48686 44.1351C5.52164 42.9481 5.02927 41.3965 5.02927 39.4842C5.02927 37.5718 5.549 36.0901 6.60409 34.8759C7.65918 33.6618 9.1324 33.0645 11.0511 33.0645C13.9077 33.0645 15.8381 34.5191 16.6587 36.8581H21.8326C21.3128 34.3911 20.1093 32.4516 18.2179 31.0513C16.3305 29.6665 13.935 28.9683 11.0511 28.9683C7.65918 28.9683 4.97065 29.9109 2.98942 31.7922C0.996475 33.689 0 36.2413 0 39.4803C0 42.7192 0.965213 45.2716 2.89955 47.1568C4.81825 49.0536 7.43644 49.9962 10.7502 49.9962C11.6294 49.9962 12.4462 49.8953 13.2355 49.6665C14.0249 49.4531 14.6501 49.2243 15.1073 48.9527C15.5685 48.6967 15.9983 48.3981 16.4008 48.0528C16.8033 47.7115 17.0417 47.4671 17.1433 47.3391C17.2488 47.2111 17.323 47.0986 17.3816 47.0249H17.5731V49.7053H21.9146V39.1932H10.9886V42.758H16.5337L16.5376 42.7658Z" fill="#DE1251"/>
<path d="M35.9122 42.6689L40.6132 49.717H46.0254L40.7304 41.7729L41.1329 41.6604C41.6527 41.4742 42.4264 40.8885 43.1845 40.0778C43.9426 39.2632 44.5366 37.6806 44.5366 35.8962C44.5366 31.3889 41.8754 29.2632 35.791 29.2632H26.6586V49.7209H31.4613V42.6728H35.9083L35.9122 42.6689ZM39.5112 35.9777C39.5112 37.9172 38.3076 38.7899 35.7949 38.7899H31.4691V33.1538H35.7949C38.2803 33.1383 39.5112 34.0809 39.5112 35.9777Z" fill="#DE1251"/>
<path d="M67.7486 31.7961C65.7556 29.9148 63.0632 28.9722 59.6752 28.9722C56.2872 28.9722 53.5947 29.9148 51.6135 31.7961C49.6205 33.6929 48.6241 36.2452 48.6241 39.4842C48.6241 42.7231 49.6205 45.2755 51.6135 47.1607C53.5908 49.0575 56.2833 50.0001 59.6752 50.0001C63.0671 50.0001 65.7556 49.0575 67.7486 47.1607C69.7415 45.2794 70.738 42.7231 70.738 39.4842C70.738 36.2452 69.7415 33.6929 67.7486 31.7961ZM64.1339 44.1079C63.0788 45.3221 61.59 45.9194 59.6869 45.9194C57.7838 45.9194 56.295 45.3221 55.2399 44.1079C54.1848 42.8938 53.6494 41.3539 53.6494 39.4842C53.6494 37.6145 54.1848 36.0901 55.2399 34.876C56.295 33.6619 57.7682 33.0645 59.6869 33.0645C61.6056 33.0645 63.0788 33.6619 64.1339 34.876C65.189 36.0901 65.7087 37.6145 65.7087 39.4842C65.7087 41.3539 65.189 42.8938 64.1339 44.1079Z" fill="#DE1251"/>
<path d="M92.0039 48.0607C93.8328 46.7612 94.755 44.8644 94.755 42.3547V29.2593H89.9367V42.056C89.9367 43.4098 89.4444 44.3795 88.4792 44.9963C87.5139 45.6092 86.2791 45.9234 84.8059 45.9234C83.3327 45.9234 82.0861 45.6092 81.117 44.9963C80.1361 44.3834 79.6437 43.3981 79.6437 42.056V29.2593H74.8411V42.3547C74.8411 44.8644 75.7634 46.7612 77.5922 48.0607C79.421 49.3601 81.8321 50.0002 84.7902 50.0002C87.7484 50.0002 90.1595 49.3601 92.0039 48.0607Z" fill="#DE1251"/>
<path d="M108.42 44.4222C114.548 44.4222 117.611 41.897 117.611 36.8621C117.611 31.8272 114.548 29.2593 108.42 29.2593H99.4677V49.717H104.27V44.4261H108.42V44.4222ZM112.598 36.8621C112.598 39.3175 111.199 40.5432 108.42 40.5432H104.27V33.1538H108.42C111.203 33.1538 112.598 34.395 112.598 36.8621Z" fill="#DE1251"/>
</g>
<defs>
<clipPath id="clip0_534_1661">
<rect width="194" height="50" fill="white"/>
</clipPath>
</defs>
</svg>
