<?xml version="1.0" encoding="UTF-8"?>
<svg xmlns="http://www.w3.org/2000/svg" xmlns:xlink="http://www.w3.org/1999/xlink" width="139px" height="36px" viewBox="0 0 139 36" version="1.1">
<g id="surface1">
<path style=" stroke:none;fill-rule:nonzero;fill:rgb(87.058824%,7.058824%,31.764706%);fill-opacity:1;" d="M 13.703125 10.609375 C 13.703125 9.460938 13.191406 8.492188 12.648438 8.03125 C 12.382812 7.792969 12.074219 7.601562 11.71875 7.425781 C 11.367188 7.261719 11.125 7.167969 10.984375 7.136719 C 10.847656 7.109375 10.730469 7.089844 10.640625 7.078125 L 10.640625 6.921875 L 10.890625 6.863281 C 11.195312 6.75 11.679688 6.441406 12.125 6.019531 C 12.570312 5.597656 12.933594 4.796875 12.933594 3.894531 C 12.933594 1.292969 11.253906 0 7.875 0 L 0.4375 0 L 0.4375 14.730469 L 7.5 14.730469 C 9.707031 14.730469 11.285156 14.421875 12.253906 13.792969 C 13.222656 13.167969 13.703125 12.109375 13.703125 10.609375 Z M 10.101562 10.273438 C 10.101562 11.496094 9.292969 12.101562 7.664062 12.101562 L 3.878906 12.101562 L 3.878906 8.421875 L 7.660156 8.421875 C 9.289062 8.421875 10.097656 9.039062 10.097656 10.273438 Z M 9.335938 4.335938 C 9.335938 5.484375 8.632812 6.058594 7.226562 6.058594 L 3.878906 6.058594 L 3.878906 2.628906 L 7.222656 2.628906 C 8.628906 2.628906 9.332031 3.191406 9.332031 4.332031 Z M 9.335938 4.335938 "/>
<path style=" stroke:none;fill-rule:nonzero;fill:rgb(87.058824%,7.058824%,31.764706%);fill-opacity:1;" d="M 20.09375 11.820312 L 20.09375 0 L 16.652344 0 L 16.652344 14.730469 L 27.488281 14.730469 L 27.488281 11.820312 Z M 20.09375 11.820312 "/>
<path style=" stroke:none;fill-rule:nonzero;fill:rgb(87.058824%,7.058824%,31.764706%);fill-opacity:1;" d="M 30.582031 0 L 30.582031 2.804688 L 34.332031 2.804688 L 34.332031 11.933594 L 30.582031 11.933594 L 30.582031 14.726562 L 41.535156 14.726562 L 41.535156 11.933594 L 37.78125 11.933594 L 37.78125 2.804688 L 41.535156 2.804688 L 41.535156 0 Z M 30.582031 0 "/>
<path style=" stroke:none;fill-rule:nonzero;fill:rgb(87.058824%,7.058824%,31.764706%);fill-opacity:1;" d="M 59.273438 14.730469 L 59.273438 0 L 55.832031 0 L 55.832031 9.789062 L 56.3125 11.65625 L 55.980469 11.65625 L 55.277344 9.789062 L 49.777344 0 L 44.589844 0 L 44.589844 14.730469 L 48.03125 14.730469 L 48.03125 4.953125 L 47.554688 3.070312 L 47.882812 3.070312 L 48.585938 4.953125 L 54.085938 14.730469 Z M 59.273438 14.730469 "/>
<path style=" stroke:none;fill-rule:nonzero;fill:rgb(87.058824%,7.058824%,31.764706%);fill-opacity:1;" d="M 76.03125 10.609375 C 76.03125 9.460938 75.519531 8.492188 74.976562 8.03125 C 74.710938 7.792969 74.402344 7.601562 74.046875 7.425781 C 73.695312 7.261719 73.453125 7.167969 73.3125 7.136719 C 73.175781 7.109375 73.058594 7.089844 72.96875 7.078125 L 72.96875 6.921875 L 73.21875 6.863281 C 73.523438 6.75 74.007812 6.441406 74.453125 6.019531 C 74.898438 5.597656 75.261719 4.796875 75.261719 3.894531 C 75.261719 1.296875 73.578125 0 70.199219 0 L 62.761719 0 L 62.761719 14.730469 L 69.828125 14.730469 C 72.03125 14.730469 73.609375 14.421875 74.578125 13.792969 C 75.546875 13.167969 76.027344 12.109375 76.027344 10.609375 Z M 72.429688 10.273438 C 72.429688 11.496094 71.621094 12.101562 69.992188 12.101562 L 66.207031 12.101562 L 66.207031 8.421875 L 69.992188 8.421875 C 71.621094 8.421875 72.429688 9.039062 72.429688 10.273438 Z M 71.664062 4.335938 C 71.664062 5.484375 70.960938 6.058594 69.554688 6.058594 L 66.207031 6.058594 L 66.207031 2.628906 L 69.554688 2.628906 C 70.960938 2.628906 71.664062 3.191406 71.664062 4.332031 Z M 71.664062 4.335938 "/>
<path style=" stroke:none;fill-rule:nonzero;fill:rgb(87.058824%,7.058824%,31.764706%);fill-opacity:1;" d="M 91.503906 14.730469 L 91.503906 11.9375 L 82.425781 11.9375 L 82.425781 8.527344 L 90.085938 8.527344 L 90.085938 5.835938 L 82.425781 5.835938 L 82.425781 2.804688 L 91.503906 2.804688 L 91.503906 0 L 78.984375 0 L 78.984375 14.730469 Z M 91.503906 14.730469 "/>
<path style=" stroke:none;fill-rule:nonzero;fill:rgb(87.058824%,7.058824%,31.764706%);fill-opacity:1;" d="M 101.082031 9.65625 L 104.449219 14.730469 L 108.328125 14.730469 L 104.535156 9.011719 L 104.820312 8.929688 C 105.195312 8.792969 105.75 8.375 106.292969 7.789062 C 106.835938 7.203125 107.261719 6.0625 107.261719 4.777344 C 107.261719 1.535156 105.355469 0.00390625 100.992188 0.00390625 L 94.453125 0.00390625 L 94.453125 14.730469 L 97.890625 14.730469 L 97.890625 9.65625 Z M 103.660156 4.835938 C 103.660156 6.234375 102.796875 6.859375 100.996094 6.859375 L 97.898438 6.859375 L 97.898438 2.804688 L 100.996094 2.804688 C 102.777344 2.792969 103.660156 3.472656 103.660156 4.835938 Z M 103.660156 4.835938 "/>
<path style=" stroke:none;fill-rule:nonzero;fill:rgb(87.058824%,7.058824%,31.764706%);fill-opacity:1;" d="M 117.257812 9.65625 L 120.621094 14.730469 L 124.5 14.730469 L 120.707031 9.011719 L 120.992188 8.929688 C 121.367188 8.792969 121.921875 8.375 122.464844 7.789062 C 123.007812 7.203125 123.433594 6.0625 123.433594 4.777344 C 123.433594 1.535156 121.527344 0.00390625 117.167969 0.00390625 L 110.625 0.00390625 L 110.625 14.730469 L 114.066406 14.730469 L 114.066406 9.65625 Z M 119.835938 4.835938 C 119.835938 6.234375 118.972656 6.859375 117.171875 6.859375 L 114.074219 6.859375 L 114.074219 2.804688 L 117.171875 2.804688 C 118.953125 2.792969 119.835938 3.472656 119.835938 4.835938 Z M 119.835938 4.835938 "/>
<path style=" stroke:none;fill-rule:nonzero;fill:rgb(87.058824%,7.058824%,31.764706%);fill-opacity:1;" d="M 131.425781 6.582031 L 127.855469 0 L 124.074219 0 L 129.613281 9.613281 L 129.613281 14.726562 L 133.460938 14.726562 L 133.460938 9.613281 L 139 0 L 135.230469 0 L 131.648438 6.582031 Z M 131.425781 6.582031 "/>
<path style=" stroke:none;fill-rule:nonzero;fill:rgb(87.058824%,7.058824%,31.764706%);fill-opacity:1;" d="M 11.847656 30.792969 L 11.742188 31.015625 C 11.625 31.335938 11.222656 31.808594 10.667969 32.261719 C 10.113281 32.710938 9.058594 33.0625 7.8125 33.0625 C 6.394531 33.0625 5.339844 32.632812 4.648438 31.777344 C 3.957031 30.921875 3.601562 29.804688 3.601562 28.429688 C 3.601562 27.050781 3.976562 25.984375 4.730469 25.109375 C 5.488281 24.234375 6.542969 23.804688 7.917969 23.804688 C 9.964844 23.804688 11.347656 24.851562 11.9375 26.539062 L 15.644531 26.539062 C 15.269531 24.761719 14.40625 23.363281 13.054688 22.355469 C 11.699219 21.359375 9.984375 20.855469 7.917969 20.855469 C 5.488281 20.855469 3.5625 21.535156 2.140625 22.890625 C 0.714844 24.253906 0 26.09375 0 28.425781 C 0 30.757812 0.691406 32.59375 2.078125 33.953125 C 3.453125 35.320312 5.328125 35.996094 7.703125 35.996094 C 8.332031 35.996094 8.917969 35.925781 9.484375 35.757812 C 10.046875 35.605469 10.496094 35.441406 10.824219 35.246094 C 11.15625 35.0625 11.460938 34.847656 11.75 34.597656 C 12.039062 34.351562 12.210938 34.175781 12.28125 34.082031 C 12.359375 33.992188 12.410156 33.910156 12.453125 33.859375 L 12.589844 33.859375 L 12.589844 35.789062 L 15.703125 35.789062 L 15.703125 28.21875 L 7.875 28.21875 L 7.875 30.785156 L 11.847656 30.785156 Z M 11.847656 30.792969 "/>
<path style=" stroke:none;fill-rule:nonzero;fill:rgb(87.058824%,7.058824%,31.764706%);fill-opacity:1;" d="M 25.730469 30.722656 L 29.097656 35.796875 L 32.976562 35.796875 L 29.183594 30.078125 L 29.472656 29.996094 C 29.84375 29.859375 30.398438 29.441406 30.941406 28.855469 C 31.484375 28.269531 31.910156 27.128906 31.910156 25.84375 C 31.910156 22.601562 30.003906 21.070312 25.644531 21.070312 L 19.101562 21.070312 L 19.101562 35.800781 L 22.542969 35.800781 L 22.542969 30.722656 Z M 28.308594 25.902344 C 28.308594 27.300781 27.449219 27.929688 25.648438 27.929688 L 22.546875 27.929688 L 22.546875 23.871094 L 25.648438 23.871094 C 27.425781 23.859375 28.308594 24.539062 28.308594 25.902344 Z M 28.308594 25.902344 "/>
<path style=" stroke:none;fill-rule:nonzero;fill:rgb(87.058824%,7.058824%,31.764706%);fill-opacity:1;" d="M 48.542969 22.894531 C 47.113281 21.539062 45.183594 20.859375 42.757812 20.859375 C 40.328125 20.859375 38.398438 21.539062 36.980469 22.894531 C 35.554688 24.257812 34.839844 26.097656 34.839844 28.429688 C 34.839844 30.761719 35.554688 32.597656 36.980469 33.957031 C 38.398438 35.320312 40.328125 36 42.757812 36 C 45.1875 36 47.113281 35.320312 48.542969 33.957031 C 49.96875 32.601562 50.683594 30.761719 50.683594 28.429688 C 50.683594 26.097656 49.96875 24.257812 48.542969 22.894531 Z M 45.953125 31.757812 C 45.195312 32.632812 44.128906 33.0625 42.765625 33.0625 C 41.402344 33.0625 40.335938 32.632812 39.578125 31.757812 C 38.824219 30.882812 38.441406 29.773438 38.441406 28.429688 C 38.441406 27.082031 38.824219 25.984375 39.578125 25.109375 C 40.335938 24.238281 41.390625 23.804688 42.765625 23.804688 C 44.140625 23.804688 45.195312 24.238281 45.953125 25.109375 C 46.707031 25.984375 47.078125 27.082031 47.078125 28.429688 C 47.078125 29.773438 46.707031 30.882812 45.953125 31.757812 Z M 45.953125 31.757812 "/>
<path style=" stroke:none;fill-rule:nonzero;fill:rgb(87.058824%,7.058824%,31.764706%);fill-opacity:1;" d="M 65.921875 34.601562 C 67.230469 33.667969 67.890625 32.300781 67.890625 30.496094 L 67.890625 21.066406 L 64.4375 21.066406 L 64.4375 30.28125 C 64.4375 31.253906 64.085938 31.953125 63.394531 32.398438 C 62.703125 32.839844 61.820312 33.066406 60.761719 33.066406 C 59.707031 33.066406 58.8125 32.839844 58.121094 32.398438 C 57.417969 31.957031 57.0625 31.246094 57.0625 30.28125 L 57.0625 21.066406 L 53.625 21.066406 L 53.625 30.496094 C 53.625 32.300781 54.285156 33.667969 55.59375 34.601562 C 56.90625 35.539062 58.632812 36 60.75 36 C 62.871094 36 64.597656 35.539062 65.921875 34.601562 Z M 65.921875 34.601562 "/>
<path style=" stroke:none;fill-rule:nonzero;fill:rgb(87.058824%,7.058824%,31.764706%);fill-opacity:1;" d="M 77.683594 31.984375 C 82.074219 31.984375 84.269531 30.164062 84.269531 26.539062 C 84.269531 22.914062 82.074219 21.066406 77.683594 21.066406 L 71.269531 21.066406 L 71.269531 35.796875 L 74.710938 35.796875 L 74.710938 31.988281 L 77.683594 31.988281 Z M 80.675781 26.539062 C 80.675781 28.308594 79.671875 29.191406 77.683594 29.191406 L 74.710938 29.191406 L 74.710938 23.871094 L 77.683594 23.871094 C 79.675781 23.871094 80.675781 24.765625 80.675781 26.539062 Z M 80.675781 26.539062 "/>
</g>
</svg>
