<svg width="20" height="20" viewBox="0 0 20 20" fill="none" xmlns="http://www.w3.org/2000/svg">
<path fill-rule="evenodd" clip-rule="evenodd" d="M9.53117 3.436C9.44805 4.08422 9.54965 4.61184 9.87522 4.66137C10.0229 4.68342 10.089 4.63494 10.2103 4.54598C10.3259 4.46112 10.4918 4.33944 10.8265 4.20698C11.7499 3.89646 12.693 3.63969 13.6505 3.43815C16.135 2.87608 15.8164 0.662226 15.6016 0.158293C15.5869 0.12081 15.5625 0.0873141 15.5305 0.0608156C15.4985 0.0343172 15.4599 0.0156422 15.4182 0.00646412C15.3766 -0.00271394 15.3331 -0.00211097 15.2918 0.00822545C15.2505 0.0185619 15.2125 0.0383123 15.1814 0.0656922C14.9152 0.275354 14.6248 0.456659 14.3155 0.606237C13.781 0.868603 13.3317 0.985335 11.7988 1.3836C11.696 1.41031 11.5883 1.43829 11.4754 1.46766C10.1315 1.81869 9.63277 2.66503 9.53117 3.436ZM11.7588 5.30867C13.6735 4.91956 16.2303 4.39995 18.4058 6.70414C20.7992 9.2377 20.4576 13.6365 17.6505 16.7117C14.8435 19.7869 9.21535 21.2503 4.9234 18.6774C0.229437 15.8621 -0.932422 10.819 0.694198 7.2589C1.45406 5.5968 3.30608 4.26668 5.76924 4.26668C7.06228 4.26919 7.86825 4.68105 8.56396 5.03655C9.07727 5.29885 9.53055 5.53048 10.0751 5.54439C10.5364 5.55709 11.1108 5.44035 11.7588 5.30867ZM10.1728 16.9366C10.6514 17.2533 12.2897 17.7644 13.8907 16.8165C15.5267 15.849 15.7404 14.2851 15.5824 13.726C15.5499 13.6103 15.5104 13.5338 15.4221 13.5316C15.336 13.5295 15.3051 13.5689 15.1829 13.7248L15.1734 13.737C14.5736 14.4581 13.8437 15.0746 13.017 15.5585C12.1571 16.0571 11.2146 16.4174 10.2285 16.6243C10.0333 16.6615 10.038 16.8471 10.1728 16.9366Z" fill="#DE1251"/>
</svg>
